<svg width="25" height="26" viewBox="0 0 25 26" fill="none" xmlns="http://www.w3.org/2000/svg">
<path d="M3.45472 25.2221C3.93713 25.7239 4.57779 26 5.25929 26C5.94079 26 6.58145 25.7239 7.06386 25.2221L12.5975 19.4661C13.5113 19.7595 14.4595 19.9082 15.4269 19.9082C17.9832 19.9082 20.3876 18.8741 22.1934 16.9944C24.9322 14.1443 25.7502 9.8937 24.2762 6.16481L23.5487 4.32227L18.1325 9.95476L15.4256 7.13785L20.8406 1.50536L19.068 0.74737C17.9066 0.250893 16.6801 0 15.4218 0C12.8655 0 10.4624 1.03543 8.65658 2.91514C6.12329 5.54886 5.23376 9.38262 6.28026 12.8951L0.746587 18.6511C-0.248862 19.6852 -0.248862 21.3711 0.746587 22.4052L3.45472 25.2221ZM9.25895 13.5522L8.93479 12.7345C7.85256 9.99857 8.45238 6.88032 10.4611 4.7922C11.7859 3.41428 13.547 2.65496 15.4218 2.65496C15.6477 2.65496 15.871 2.66558 16.0931 2.68814L11.8139 7.13918L18.1299 13.7102L22.4116 9.25651C22.6107 11.3911 21.8973 13.5456 20.3863 15.1187C18.4081 17.1762 15.3274 17.8095 12.7494 16.7063L11.9645 16.3678L5.25929 23.345H5.26056L5.25929 24.6725V23.345L2.55116 20.5281L9.25895 13.5522Z" fill="#D90062"/>
</svg>
